<svg width="40" height="40" viewBox="0 0 40 40" fill="none" xmlns="http://www.w3.org/2000/svg">
<mask id="mask0_890_682" style="mask-type:alpha" maskUnits="userSpaceOnUse" x="0" y="0" width="40" height="40">
<rect width="40" height="40" fill="#D9D9D9"/>
</mask>
<g mask="url(#mask0_890_682)">
<path d="M20.167 35C20.389 35 20.5833 34.9723 20.75 34.917C20.9167 34.861 21.111 34.722 21.333 34.5L35.208 20.583C35.6807 20.111 36.042 19.5903 36.292 19.021C36.542 18.4517 36.667 17.889 36.667 17.333C36.667 16.5277 36.5487 15.8193 36.312 15.208C36.076 14.5973 35.708 14.042 35.208 13.542L28.167 6.458C27.667 5.958 27.1113 5.59 26.5 5.354C25.8887 5.118 25.222 5 24.5 5C23.9167 5 23.3333 5.118 22.75 5.354C22.1667 5.59 21.639 5.93033 21.167 6.375L21 6.583L28.458 14.042C28.8193 14.4027 29.0763 14.7777 29.229 15.167C29.3817 15.5557 29.458 15.9443 29.458 16.333C29.458 17.3057 29.1387 18.0837 28.5 18.667C27.8613 19.2503 27.0973 19.542 26.208 19.542C25.736 19.542 25.3057 19.4447 24.917 19.25C24.5277 19.0553 24.1803 18.8053 23.875 18.5L18.25 12.875L8.95801 22.167C8.79134 22.3337 8.66634 22.514 8.58301 22.708C8.49967 22.9027 8.45801 23.111 8.45801 23.333C8.45801 23.8057 8.61801 24.1947 8.93801 24.5C9.25734 24.8053 9.65301 24.958 10.125 24.958C10.403 24.958 10.639 24.9163 10.833 24.833C11.0277 24.7497 11.1943 24.6387 11.333 24.5L19 16.792L20 17.75L12.292 25.458C12.1253 25.6247 12.0003 25.8053 11.917 26C11.8337 26.1947 11.792 26.403 11.792 26.625C11.792 27.0697 11.9587 27.4587 12.292 27.792C12.6253 28.1253 13.014 28.292 13.458 28.292C13.708 28.292 13.9303 28.2503 14.125 28.167C14.3197 28.0837 14.5003 27.9587 14.667 27.792L22.375 20.125L23.333 21.125L15.625 28.833C15.4863 28.9723 15.3753 29.132 15.292 29.312C15.2087 29.4927 15.167 29.722 15.167 30C15.167 30.472 15.3267 30.868 15.646 31.188C15.9653 31.5073 16.361 31.667 16.833 31.667C17.0557 31.667 17.264 31.6253 17.458 31.542C17.6527 31.4587 17.8333 31.3337 18 31.167L25.708 23.458L26.667 24.417L18.958 32.125C18.7913 32.2917 18.6663 32.4793 18.583 32.688C18.4997 32.896 18.458 33.0973 18.458 33.292C18.458 33.764 18.6247 34.1667 18.958 34.5C19.2913 34.8333 19.6943 35 20.167 35ZM6.66701 22.458L18.208 10.875L24.833 17.458C25.0557 17.708 25.285 17.8817 25.521 17.979C25.757 18.0763 26 18.125 26.25 18.125C26.75 18.125 27.1807 17.9513 27.542 17.604C27.9027 17.2567 28.083 16.8193 28.083 16.292C28.083 16.0693 28.0347 15.854 27.938 15.646C27.8407 15.4373 27.6807 15.222 27.458 15L18.917 6.458C18.361 5.90267 17.7913 5.52067 17.208 5.312C16.6247 5.104 15.958 5 15.208 5C14.6247 5 14.0277 5.132 13.417 5.396C12.8057 5.66 12.2777 6.014 11.833 6.458L4.79201 13.542C4.37534 13.9587 4.02801 14.4723 3.75001 15.083C3.47201 15.6943 3.33301 16.361 3.33301 17.083C3.33301 17.7497 3.45801 18.3887 3.70801 19C3.95801 19.6113 4.31934 20.139 4.79201 20.583L6.66701 22.458Z" fill="white"/>
</g>
</svg>
