<svg width="40" height="40" viewBox="0 0 40 40" fill="none" xmlns="http://www.w3.org/2000/svg">
<mask id="mask0_890_679" style="mask-type:alpha" maskUnits="userSpaceOnUse" x="0" y="0" width="40" height="40">
<rect width="40" height="40" fill="#D9D9D9"/>
</mask>
<g mask="url(#mask0_890_679)">
<path d="M7.792 36.667C7.042 36.667 6.389 36.389 5.833 35.833C5.27767 35.2777 5 34.625 5 33.875V25.875L10.292 20L12.25 21.958L7.875 26.792H32.125L27.958 22.083L29.958 20.083L35 25.875V33.875C35 34.625 34.7223 35.2777 34.167 35.833C33.611 36.389 32.958 36.667 32.208 36.667H7.792ZM18.167 23.958L11.833 17.583C11.2497 17.0277 10.979 16.375 11.021 15.625C11.0623 14.875 11.361 14.2224 11.917 13.667L20.5 5.08302C21.028 4.55569 21.6807 4.28502 22.458 4.27102C23.236 4.25702 23.9027 4.52769 24.458 5.08302L30.833 11.417C31.361 11.9444 31.632 12.583 31.646 13.333C31.66 14.083 31.3753 14.7497 30.792 15.333L22.125 24C21.597 24.528 20.9443 24.7987 20.167 24.812C19.389 24.826 18.7223 24.5414 18.167 23.958ZM28.625 13.292L22.5 7.16702L13.958 15.708L20.125 21.792L28.625 13.292Z" fill="white"/>
</g>
</svg>
