<svg width="48" height="48" viewBox="0 0 48 48" fill="none" xmlns="http://www.w3.org/2000/svg">
<mask id="mask0_1278_134" style="mask-type:alpha" maskUnits="userSpaceOnUse" x="0" y="0" width="48" height="48">
<rect x="48" width="48" height="48" transform="rotate(90 48 0)" fill="#D9D9D9"/>
</mask>
<g mask="url(#mask0_1278_134)">
<path opacity="0.25" d="M17.55 24L26.2 32.65L28.3 30.5L21.8 24L28.3 17.5L26.2 15.35L17.55 24ZM4 24C4 21.2667 4.525 18.6833 5.575 16.25C6.625 13.8167 8.05833 11.6917 9.875 9.875C11.6917 8.05833 13.8167 6.625 16.25 5.575C18.6833 4.525 21.2667 4 24 4C26.7667 4 29.3667 4.525 31.8 5.575C34.2333 6.625 36.35 8.05833 38.15 9.875C39.95 11.6917 41.375 13.8167 42.425 16.25C43.475 18.6833 44 21.2667 44 24C44 26.7667 43.475 29.3667 42.425 31.8C41.375 34.2333 39.95 36.35 38.15 38.15C36.35 39.95 34.2333 41.375 31.8 42.425C29.3667 43.475 26.7667 44 24 44C21.2667 44 18.6833 43.475 16.25 42.425C13.8167 41.375 11.6917 39.95 9.875 38.15C8.05833 36.35 6.625 34.2333 5.575 31.8C4.525 29.3667 4 26.7667 4 24Z" fill="white"/>
</g>
</svg>
