<svg width="24" height="27" viewBox="0 0 24 27" fill="none" xmlns="http://www.w3.org/2000/svg">
<path d="M11.6877 0.197754C8.59373 0.197754 6.19573 4.77575 5.76574 11.1358C6.32073 11.7258 6.97274 12.3108 7.69574 12.8818C7.70374 12.2178 7.74274 11.5848 7.79674 10.9638C8.37874 10.5608 9.10973 10.0688 9.68773 9.73375C12.3477 8.19775 15.0857 7.18575 17.3947 6.88575C17.8145 6.83014 18.2373 6.80141 18.6607 6.79975C19.9577 6.79975 20.8757 7.11175 21.2147 7.69775C21.5197 8.22875 21.3827 9.07275 20.8717 10.0608C21.3947 10.5458 21.8917 11.0378 22.3317 11.5338C23.4577 9.67075 23.6877 7.97775 22.9467 6.69775C22.0637 5.17075 20.0047 4.52975 17.1417 4.90075C14.5757 5.23275 11.5757 6.33475 8.68874 8.00275C8.50473 8.10775 8.33373 8.22475 8.15373 8.33875C8.87173 4.63775 10.3327 2.19775 11.6877 2.19775C12.3207 2.19775 12.9777 2.73775 13.5707 3.67475C14.2507 3.46375 14.9217 3.27975 15.5747 3.14275C14.5397 1.28775 13.1947 0.197754 11.6877 0.197754ZM4.90673 4.81075C2.73774 4.77175 1.16773 5.42075 0.429735 6.69775C-0.374265 8.08775 -0.039265 9.95575 1.34373 12.0068C1.46873 12.1978 1.60573 12.4008 1.77773 12.6238C3.34773 14.6778 5.80073 16.7248 8.68773 18.3938C8.87173 18.4988 9.06273 18.5928 9.25073 18.6978C8.10573 19.0928 6.99673 19.3778 5.97673 19.5108C4.02673 19.7638 2.60174 19.4598 2.16474 18.6978C1.85574 18.1668 1.99273 17.3228 2.50473 16.3348C1.99509 15.8668 1.50628 15.3767 1.03974 14.8658C-0.0822649 16.7258 -0.312265 18.4158 0.429735 19.6978C1.14873 20.9438 2.64873 21.5998 4.72673 21.5998C5.19973 21.5998 5.70674 21.5648 6.23474 21.4948C6.53973 21.4548 6.84474 21.4048 7.15673 21.3428L7.37573 21.2958C7.39073 21.2958 7.40273 21.2918 7.41773 21.2878C7.94973 21.1748 8.53574 21.0178 9.20774 20.8078L9.86773 20.6038C10.8477 20.2678 11.8517 19.8498 12.8557 19.3618C13.0747 18.6348 13.2697 17.7878 13.4177 16.8118C12.8397 17.1348 12.2577 17.4278 11.6797 17.7018C11.0117 17.3888 10.3397 17.0418 9.68773 16.6618C7.02373 15.1238 4.77773 13.2608 3.36773 11.4118C2.17173 9.84575 1.72274 8.45975 2.16474 7.69775C2.46474 7.17475 3.26173 6.87775 4.35974 6.82275C4.51574 6.11575 4.69573 5.44375 4.90673 4.81075ZM16.4297 9.09575C15.6407 9.27975 14.8047 9.54975 13.9497 9.88875C14.5157 10.2248 15.0547 10.5848 15.5787 10.9438C15.6407 11.6708 15.6877 12.4128 15.6877 13.1978C15.6877 19.0958 13.8327 23.5958 12.0477 24.1388C11.9257 24.1788 11.8007 24.1978 11.6877 24.1978C11.0547 24.1978 10.3977 23.6628 9.80473 22.7178C9.12473 22.9318 8.45374 23.1158 7.80073 23.2528C8.83574 25.1078 10.1807 26.1978 11.6877 26.1978C11.8877 26.1978 12.0777 26.1778 12.2657 26.1388C15.3947 25.5458 17.6877 20.1858 17.6877 13.1978C17.6877 12.9828 17.6717 12.7758 17.6677 12.5608C18.5827 13.3538 19.3877 14.1708 20.0117 14.9828C21.2037 16.5498 21.6517 17.9358 21.2147 18.6978C20.9067 19.2248 20.1217 19.5298 19.0157 19.5848C18.8597 20.2838 18.6837 20.9598 18.4727 21.5888C18.5277 21.5888 18.5937 21.5998 18.6487 21.5998C20.7267 21.5998 22.2267 20.9438 22.9457 19.6978C23.8287 18.1708 23.3517 16.0648 21.5977 13.7718C20.3557 12.1468 18.5547 10.5298 16.4297 9.09575ZM11.6877 11.1978C11.1573 11.1978 10.6486 11.4085 10.2735 11.7835C9.89845 12.1586 9.68773 12.6673 9.68773 13.1978C9.68773 13.7282 9.89845 14.2369 10.2735 14.612C10.6486 14.987 11.1573 15.1978 11.6877 15.1978C12.2182 15.1978 12.7269 14.987 13.1019 14.612C13.477 14.2369 13.6877 13.7282 13.6877 13.1978C13.6877 12.6673 13.477 12.1586 13.1019 11.7835C12.7269 11.4085 12.2182 11.1978 11.6877 11.1978Z" fill="white"/>
</svg>
