<svg width="42" height="27" viewBox="0 0 42 27" fill="none" xmlns="http://www.w3.org/2000/svg">
<mask id="mask0_920_834" style="mask-type:alpha" maskUnits="userSpaceOnUse" x="17" y="0" width="26" height="25">
<rect x="17.3799" width="24.6207" height="24.6207" fill="#D9D9D9"/>
</mask>
<g mask="url(#mask0_920_834)">
<path d="M19.4326 19.4915V17.773H29.6914V19.4915H19.4326ZM19.4326 14.1827V12.49H24.5623V14.1827H19.4326ZM19.4326 8.89907V7.18116H24.5623V8.89907H19.4326ZM38.7445 19.4915L34.6925 15.4389C34.2649 15.7639 33.799 16.0077 33.2947 16.1702C32.7904 16.3327 32.2731 16.4139 31.743 16.4139C30.324 16.4139 29.1145 15.9137 28.1145 14.9133C27.1141 13.9133 26.6139 12.7036 26.6139 11.2842C26.6139 9.86523 27.1141 8.65573 28.1145 7.65572C29.1145 6.6553 30.324 6.15509 31.743 6.15509C33.1624 6.15509 34.3721 6.6553 35.3721 7.65572C36.3725 8.65573 36.8727 9.86523 36.8727 11.2842C36.8727 11.8144 36.7914 12.3316 36.6289 12.8359C36.4665 13.3402 36.2227 13.8062 35.8977 14.2338L39.9503 18.2857L38.7445 19.4915ZM31.743 14.6954C32.6835 14.6954 33.4871 14.3663 34.154 13.7081C34.8208 13.0499 35.1542 12.2419 35.1542 11.2842C35.1542 10.3441 34.8251 9.54064 34.1669 8.87383C33.5087 8.20702 32.7007 7.87362 31.743 7.87362C30.8029 7.87362 29.9994 8.20271 29.3326 8.86091C28.6658 9.5191 28.3324 10.3269 28.3324 11.2842C28.3324 12.2247 28.6615 13.0284 29.3197 13.6952C29.9779 14.362 30.7856 14.6954 31.743 14.6954Z" fill="white"/>
</g>
<path fill-rule="evenodd" clip-rule="evenodd" d="M17.379 2.91517C15.8662 2.8734 14.3505 2.963 12.8497 3.18398C12.5961 2.60798 12.3103 2.04634 11.9933 1.50168C11.9826 1.48306 11.9663 1.4681 11.9468 1.45882C11.9272 1.44953 11.9052 1.44635 11.8837 1.44971C9.50485 1.84635 7.2287 2.54389 5.10384 3.48899C5.08556 3.49654 5.07006 3.50943 5.05943 3.52592C0.740309 9.78327 -0.443562 15.8861 0.137964 21.9123C0.139583 21.927 0.144232 21.9413 0.151628 21.9542C0.159025 21.9672 0.169014 21.9785 0.180989 21.9875C2.70194 23.7962 5.51374 25.1741 8.49862 26.0633C8.51943 26.0696 8.54169 26.0696 8.56248 26.0633C8.58328 26.0569 8.60166 26.0446 8.61521 26.0278C9.25752 25.1812 9.82669 24.2831 10.3168 23.3429C10.3236 23.3301 10.3275 23.3159 10.3283 23.3014C10.329 23.287 10.3266 23.2725 10.3212 23.259C10.3158 23.2455 10.3076 23.2333 10.297 23.2233C10.2864 23.2132 10.2737 23.2055 10.2599 23.2007C9.36329 22.8679 8.49458 22.4664 7.66173 21.9998C7.64676 21.9914 7.63415 21.9794 7.62502 21.965C7.6159 21.9506 7.61055 21.9342 7.60945 21.9173C7.60835 21.9003 7.61153 21.8834 7.61872 21.8679C7.62591 21.8525 7.63687 21.8391 7.65062 21.8288C7.8255 21.7016 8.00037 21.569 8.16692 21.4363C8.18191 21.4244 8.19997 21.4168 8.21908 21.4144C8.23819 21.4119 8.25761 21.4148 8.27517 21.4226C11.2283 22.7299 14.3143 23.3288 17.379 23.2195V2.91517ZM8.13777 14.9875C8.13777 16.7806 9.49097 18.2427 11.1315 18.2427C12.7983 18.2427 14.1251 16.7819 14.1251 14.9875C14.1515 13.2053 12.8108 11.7323 11.1315 11.7323C9.4646 11.7323 8.13777 13.193 8.13777 14.9875Z" fill="white"/>
</svg>
