<svg width="40" height="40" viewBox="0 0 40 40" fill="none" xmlns="http://www.w3.org/2000/svg">
<mask id="mask0_1278_160" style="mask-type:alpha" maskUnits="userSpaceOnUse" x="0" y="0" width="40" height="40">
<rect width="40" height="40" fill="#D9D9D9"/>
</mask>
<g mask="url(#mask0_1278_160)">
<path d="M4.70799 33.625C3.87466 33.625 3.15933 33.3263 2.56199 32.729C1.96533 32.1317 1.66699 31.4027 1.66699 30.542C1.66699 29.7087 1.96533 28.9933 2.56199 28.396C3.15933 27.7987 3.87466 27.5 4.70799 27.5C4.87466 27.5 5.02066 27.507 5.14599 27.521C5.27066 27.535 5.43033 27.5697 5.62499 27.625L13.708 19.542C13.6527 19.3473 13.625 19.1807 13.625 19.042V18.625C13.625 17.7637 13.9237 17.0347 14.521 16.438C15.1183 15.8407 15.8337 15.542 16.667 15.542C17.5003 15.542 18.2153 15.8473 18.812 16.458C19.4093 17.0693 19.708 17.7917 19.708 18.625C19.708 18.6803 19.6803 18.986 19.625 19.542L24.083 24C24.2777 23.9447 24.4443 23.91 24.583 23.896C24.7223 23.882 24.8613 23.875 25 23.875C25.1387 23.875 25.2777 23.882 25.417 23.896C25.5557 23.91 25.7223 23.9447 25.917 24L32.333 17.583C32.2777 17.389 32.243 17.2223 32.229 17.083C32.215 16.9443 32.208 16.8057 32.208 16.667C32.208 15.8337 32.5067 15.1183 33.104 14.521C33.7013 13.9237 34.4307 13.625 35.292 13.625C36.1253 13.625 36.8407 13.9237 37.438 14.521C38.0347 15.1183 38.333 15.8337 38.333 16.667C38.333 17.5003 38.0347 18.2153 37.438 18.812C36.8407 19.4093 36.1253 19.708 35.292 19.708H34.854C34.7293 19.708 34.5697 19.6803 34.375 19.625L27.958 26.042C28.014 26.236 28.042 26.3957 28.042 26.521V26.958C28.042 27.7913 27.7433 28.5067 27.146 29.104C26.5487 29.7013 25.8333 30 25 30C24.1667 30 23.4513 29.7013 22.854 29.104C22.2567 28.5067 21.958 27.7913 21.958 26.958V26.521C21.958 26.3957 21.986 26.236 22.042 26.042L17.583 21.542C17.389 21.5973 17.2223 21.632 17.083 21.646C16.9443 21.66 16.8057 21.667 16.667 21.667C16.611 21.667 16.3053 21.6253 15.75 21.542L7.66699 29.625C7.72233 29.8197 7.75699 29.9863 7.77099 30.125C7.78499 30.2637 7.79199 30.4027 7.79199 30.542C7.79199 31.4027 7.49333 32.1317 6.89599 32.729C6.29866 33.3263 5.56933 33.625 4.70799 33.625ZM6.66699 15.75L5.74999 13.792L3.79199 12.875L5.74999 11.958L6.66699 10L7.58299 11.958L9.54199 12.875L7.58299 13.792L6.66699 15.75ZM25 13.792L23.625 10.833L20.625 9.45801L23.625 8.08301L25 5.08301L26.375 8.08301L29.375 9.45801L26.375 10.833L25 13.792Z" fill="white"/>
</g>
</svg>
