<svg width="40" height="40" viewBox="0 0 40 40" fill="none" xmlns="http://www.w3.org/2000/svg">
<mask id="mask0_1278_142" style="mask-type:alpha" maskUnits="userSpaceOnUse" x="0" y="0" width="40" height="40">
<rect width="40" height="40" fill="#D9D9D9"/>
</mask>
<g mask="url(#mask0_1278_142)">
<path d="M10.292 28.042H18.042V25.292H10.292V28.042ZM26.958 28.042H29.708V25.292H26.958V28.042ZM10.292 21.375H18.042V18.625H10.292V21.375ZM26.958 21.375H29.708V11.958H26.958V21.375ZM10.292 14.708H18.042V11.958H10.292V14.708ZM5.875 35C5.125 35 4.47933 34.7223 3.938 34.167C3.396 33.611 3.125 32.958 3.125 32.208V7.792C3.125 7.042 3.396 6.389 3.938 5.833C4.47933 5.27767 5.125 5 5.875 5H34.125C34.875 5 35.5207 5.27767 36.062 5.833C36.604 6.389 36.875 7.042 36.875 7.792V32.208C36.875 32.958 36.604 33.611 36.062 34.167C35.5207 34.7223 34.875 35 34.125 35H5.875Z" fill="white"/>
</g>
</svg>
