<svg width="40" height="40" viewBox="0 0 40 40" fill="none" xmlns="http://www.w3.org/2000/svg">
<mask id="mask0_1278_151" style="mask-type:alpha" maskUnits="userSpaceOnUse" x="0" y="0" width="40" height="40">
<rect width="40" height="40" fill="#D9D9D9"/>
</mask>
<g mask="url(#mask0_1278_151)">
<path d="M28.625 28.625C29.347 28.625 29.958 28.368 30.458 27.854C30.958 27.34 31.208 26.722 31.208 26C31.208 25.278 30.958 24.674 30.458 24.188C29.958 23.7013 29.347 23.458 28.625 23.458C27.9303 23.458 27.326 23.7013 26.812 24.188C26.2987 24.674 26.042 25.278 26.042 26C26.042 26.722 26.2987 27.34 26.812 27.854C27.326 28.368 27.9303 28.625 28.625 28.625ZM28.583 33.75C29.4997 33.75 30.326 33.5557 31.062 33.167C31.7987 32.7777 32.417 32.222 32.917 31.5C32.2503 31.1387 31.5557 30.861 30.833 30.667C30.111 30.4723 29.375 30.375 28.625 30.375C27.847 30.375 27.097 30.4723 26.375 30.667C25.653 30.861 24.9587 31.1387 24.292 31.5C24.792 32.222 25.41 32.7777 26.146 33.167C26.882 33.5557 27.6943 33.75 28.583 33.75ZM28.667 36.667C26.4723 36.667 24.5973 35.882 23.042 34.312C21.486 32.7427 20.708 30.8747 20.708 28.708C20.708 26.486 21.486 24.5903 23.042 23.021C24.5973 21.4517 26.486 20.667 28.708 20.667C30.9027 20.667 32.7847 21.4517 34.354 23.021C35.9233 24.5903 36.708 26.486 36.708 28.708C36.708 30.8747 35.9233 32.7427 34.354 34.312C32.7847 35.882 30.889 36.667 28.667 36.667ZM20 36.667C16.1667 35.7503 12.986 33.5627 10.458 30.104C7.93066 26.646 6.66699 22.7223 6.66699 18.333V8.29199L20 3.29199L33.333 8.29199V18.958C32.639 18.6247 31.889 18.361 31.083 18.167C30.2777 17.9723 29.486 17.875 28.708 17.875C25.736 17.875 23.1943 18.9307 21.083 21.042C18.9723 23.1527 17.917 25.708 17.917 28.708C17.917 30.1527 18.2087 31.5347 18.792 32.854C19.3753 34.1733 20.139 35.3193 21.083 36.292C20.9163 36.3753 20.736 36.4447 20.542 36.5C20.3473 36.5553 20.1667 36.611 20 36.667Z" fill="white"/>
</g>
</svg>
