<svg width="68" height="26" viewBox="0 0 68 26" fill="none" xmlns="http://www.w3.org/2000/svg">
<path d="M48.0996 5.06724C47.1435 5.48417 46.1163 5.76588 45.0365 5.89322C46.1507 5.23716 46.9842 4.20459 47.3817 2.9882C46.3349 3.60006 45.1892 4.03075 43.9945 4.26154C43.1911 3.41737 42.127 2.85785 40.9673 2.66983C39.8077 2.48181 38.6174 2.67582 37.5813 3.22174C36.5451 3.76765 35.7211 4.63493 35.2372 5.68892C34.7533 6.74291 34.6365 7.92465 34.9049 9.05065C32.7839 8.94585 30.709 8.40333 28.8148 7.4583C26.9206 6.51328 25.2495 5.18686 23.91 3.56514C23.4519 4.34267 23.1886 5.24415 23.1886 6.20423C23.1881 7.06852 23.4043 7.91957 23.8182 8.68187C24.2321 9.44417 24.8308 10.0942 25.5612 10.5742C24.7141 10.5476 23.8858 10.3224 23.1451 9.9172V9.98481C23.145 11.197 23.5711 12.3719 24.351 13.3101C25.131 14.2484 26.2168 14.8922 27.4242 15.1323C26.6384 15.3415 25.8146 15.3724 25.015 15.2224C25.3556 16.2654 26.0192 17.1775 26.9128 17.831C27.8063 18.4844 28.8852 18.8466 29.9983 18.8666C28.1088 20.3264 25.7752 21.1182 23.3729 21.1147C22.9474 21.1148 22.5222 21.0904 22.0996 21.0415C24.538 22.5843 27.3765 23.4031 30.2754 23.4C40.0887 23.4 45.4534 15.4016 45.4534 8.46469C45.4534 8.23932 45.4476 8.0117 45.4373 7.78633C46.4808 7.0437 47.3815 6.1241 48.0973 5.07062L48.0996 5.06724Z" fill="white"/>
<mask id="mask0_920_856" style="mask-type:alpha" maskUnits="userSpaceOnUse" x="0" y="0" width="26" height="26">
<rect width="26" height="26" fill="#D9D9D9"/>
</mask>
<g mask="url(#mask0_920_856)">
<path d="M15.5996 19.5L9.09961 13L15.5996 6.5L16.9802 7.8806L11.8621 13L16.9802 18.1194L15.5996 19.5Z" fill="white"/>
</g>
<mask id="mask1_920_856" style="mask-type:alpha" maskUnits="userSpaceOnUse" x="41" y="0" width="27" height="26">
<rect x="41.5996" width="26" height="26" fill="#D9D9D9"/>
</mask>
<g mask="url(#mask1_920_856)">
<path d="M51.9997 19.5L50.6191 18.1194L55.7372 13L50.6191 7.8806L51.9997 6.5L58.4997 13L51.9997 19.5Z" fill="white"/>
</g>
</svg>
