<svg width="35" height="31" viewBox="0 0 35 31" fill="none" xmlns="http://www.w3.org/2000/svg">
<path d="M6.07286 0.693747C6.45278 0.253257 7.00566 0 7.58736 0H30.5506C32.2756 0 33.1915 2.03742 32.0465 3.32757L28.7319 7.06231C28.3524 7.48999 27.8079 7.73474 27.2361 7.73474H4.36614C2.65454 7.73474 1.73375 5.7246 2.85164 4.42849L6.07286 0.693747Z" fill="white"/>
<path d="M6.07286 23.5111C6.45278 23.0706 7.00566 22.8174 7.58736 22.8174H30.5506C32.2756 22.8174 33.1915 24.8548 32.0465 26.1449L28.7319 29.8797C28.3524 30.3074 27.8079 30.5521 27.2361 30.5521H4.36614C2.65454 30.5521 1.73375 28.542 2.85164 27.2459L6.07286 23.5111Z" fill="white"/>
<path d="M6.07286 18.4498C6.45278 18.8903 7.00566 19.1436 7.58736 19.1436H30.5506C32.2756 19.1436 33.1915 17.1061 32.0465 15.816L28.7319 12.0812C28.3524 11.6536 27.8079 11.4088 27.2361 11.4088H4.36614C2.65454 11.4088 1.73375 13.419 2.85164 14.7151L6.07286 18.4498Z" fill="white"/>
</svg>
