<svg width="40" height="40" viewBox="0 0 40 40" fill="none" xmlns="http://www.w3.org/2000/svg">
<mask id="mask0_890_522" style="mask-type:alpha" maskUnits="userSpaceOnUse" x="0" y="0" width="40" height="40">
<rect width="40" height="40" fill="#D9D9D9"/>
</mask>
<g mask="url(#mask0_890_522)">
<path d="M12.125 10.083C11.5137 10.083 10.9927 10.2983 10.562 10.729C10.132 11.1597 9.917 11.6807 9.917 12.292C9.917 12.9307 10.132 13.4653 10.562 13.896C10.9927 14.3267 11.5137 14.542 12.125 14.542C12.7637 14.542 13.2983 14.3267 13.729 13.896C14.1597 13.4653 14.375 12.9307 14.375 12.292C14.375 11.6807 14.1597 11.1597 13.729 10.729C13.2983 10.2983 12.7637 10.083 12.125 10.083ZM12.125 27.125C11.5137 27.125 10.9927 27.3403 10.562 27.771C10.132 28.2017 9.917 28.7363 9.917 29.375C9.917 29.9863 10.132 30.5073 10.562 30.938C10.9927 31.368 11.5137 31.583 12.125 31.583C12.7637 31.583 13.2983 31.368 13.729 30.938C14.1597 30.5073 14.375 29.9863 14.375 29.375C14.375 28.7363 14.1597 28.2017 13.729 27.771C13.2983 27.3403 12.7637 27.125 12.125 27.125ZM6.5 5.04199H33.458C33.9307 5.04199 34.3057 5.18066 34.583 5.45799C34.861 5.73599 35 6.11099 35 6.58299V17.917C35 18.389 34.861 18.7917 34.583 19.125C34.3057 19.4583 33.9307 19.625 33.458 19.625H6.5C6.05533 19.625 5.69433 19.4583 5.417 19.125C5.139 18.7917 5 18.389 5 17.917V6.58299C5 6.11099 5.139 5.73599 5.417 5.45799C5.69433 5.18066 6.05533 5.04199 6.5 5.04199ZM6.5 22.042H33.375C33.7917 22.042 34.1667 22.2153 34.5 22.562C34.8333 22.9093 35 23.3053 35 23.75V34.958C35 35.486 34.8333 35.9027 34.5 36.208C34.1667 36.514 33.7917 36.667 33.375 36.667H6.625C6.18033 36.667 5.79833 36.514 5.479 36.208C5.15967 35.9027 5 35.486 5 34.958V23.75C5 23.3053 5.139 22.9093 5.417 22.562C5.69433 22.2153 6.05533 22.042 6.5 22.042Z" fill="white"/>
</g>
</svg>
