<svg width="40" height="40" viewBox="0 0 40 40" fill="none" xmlns="http://www.w3.org/2000/svg">
<mask id="mask0_890_630" style="mask-type:alpha" maskUnits="userSpaceOnUse" x="0" y="0" width="40" height="40">
<rect width="40" height="40" fill="#D9D9D9"/>
</mask>
<g mask="url(#mask0_890_630)">
<path d="M5.41634 22.0833C4.86079 22.0833 4.37467 21.875 3.95801 21.4583C3.54134 21.0416 3.33301 20.5555 3.33301 20C3.33301 19.4444 3.54134 18.9583 3.95801 18.5416C4.37467 18.125 4.86079 17.9166 5.41634 17.9166C5.9719 17.9166 6.45801 18.125 6.87467 18.5416C7.29134 18.9583 7.49967 19.4444 7.49967 20C7.49967 20.5555 7.29134 21.0416 6.87467 21.4583C6.45801 21.875 5.9719 22.0833 5.41634 22.0833ZM8.45801 33.2916L6.66634 31.5L13.8747 24.2916L15.6663 26.0833L8.45801 33.2916ZM13.8747 15.625L6.70801 8.45831L8.49967 6.66665L15.6663 13.8333L13.8747 15.625ZM19.9997 36.6666C19.4441 36.6666 18.958 36.4583 18.5413 36.0416C18.1247 35.625 17.9163 35.1389 17.9163 34.5833C17.9163 34.0278 18.1247 33.5416 18.5413 33.125C18.958 32.7083 19.4441 32.5 19.9997 32.5C20.5552 32.5 21.0413 32.7083 21.458 33.125C21.8747 33.5416 22.083 34.0278 22.083 34.5833C22.083 35.1389 21.8747 35.625 21.458 36.0416C21.0413 36.4583 20.5552 36.6666 19.9997 36.6666ZM19.9997 7.49998C19.4441 7.49998 18.958 7.29165 18.5413 6.87498C18.1247 6.45831 17.9163 5.9722 17.9163 5.41665C17.9163 4.86109 18.1247 4.37498 18.5413 3.95831C18.958 3.54165 19.4441 3.33331 19.9997 3.33331C20.5552 3.33331 21.0413 3.54165 21.458 3.95831C21.8747 4.37498 22.083 4.86109 22.083 5.41665C22.083 5.9722 21.8747 6.45831 21.458 6.87498C21.0413 7.29165 20.5552 7.49998 19.9997 7.49998ZM26.1247 15.625L24.333 13.8333L31.4997 6.66665L33.2913 8.45831L26.1247 15.625ZM31.4997 33.25L24.333 26.0833L26.1247 24.2916L33.2913 31.4583L31.4997 33.25ZM34.583 22.0833C34.0275 22.0833 33.5413 21.875 33.1247 21.4583C32.708 21.0416 32.4997 20.5555 32.4997 20C32.4997 19.4444 32.708 18.9583 33.1247 18.5416C33.5413 18.125 34.0275 17.9166 34.583 17.9166C35.1386 17.9166 35.6247 18.125 36.0413 18.5416C36.458 18.9583 36.6663 19.4444 36.6663 20C36.6663 20.5555 36.458 21.0416 36.0413 21.4583C35.6247 21.875 35.1386 22.0833 34.583 22.0833Z" fill="#111631"/>
</g>
</svg>
