<svg width="40" height="40" viewBox="0 0 40 40" fill="none" xmlns="http://www.w3.org/2000/svg">
<mask id="mask0_890_609" style="mask-type:alpha" maskUnits="userSpaceOnUse" x="0" y="0" width="40" height="40">
<rect width="40" height="40" fill="#D9D9D9"/>
</mask>
<g mask="url(#mask0_890_609)">
<path d="M8.33301 35V32.5H16.9997V28.1666H16.3747C14.1247 28.1666 12.2219 27.3889 10.6663 25.8333C9.11079 24.2778 8.33301 22.375 8.33301 20.125C8.33301 18.4305 8.81912 16.8889 9.79134 15.5C10.7636 14.1111 12.0413 13.1389 13.6247 12.5833C13.5691 13 13.5761 13.4166 13.6455 13.8333C13.715 14.25 13.8469 14.6528 14.0413 15.0416C13.0136 15.4305 12.2219 16.0972 11.6663 17.0416C11.1108 17.9861 10.833 19.0139 10.833 20.125C10.833 21.6528 11.3747 22.9583 12.458 24.0416C13.5413 25.125 14.8469 25.6666 16.3747 25.6666H30.833V28.1666H21.1663V32.5H31.6663V35H8.33301ZM24.1663 19.7083L23.583 18.1666L21.7913 18.8333L20.7497 16C21.1386 15.6111 21.4302 15.1736 21.6247 14.6875C21.8191 14.2014 21.9163 13.6805 21.9163 13.125C21.9163 12.0416 21.5552 11.1041 20.833 10.3125C20.1108 9.52081 19.208 9.06942 18.1247 8.95831L17.208 6.49998L18.9163 5.87498L18.333 4.33331L21.083 3.33331L21.6663 4.87498L23.333 4.29165L28.0413 16.5833L26.2497 17.2083L26.833 18.75L24.1663 19.7083ZM17.7497 15.2083C17.1663 15.2083 16.6733 15.0069 16.2705 14.6041C15.8677 14.2014 15.6663 13.7083 15.6663 13.125C15.6663 12.5416 15.8677 12.0486 16.2705 11.6458C16.6733 11.243 17.1663 11.0416 17.7497 11.0416C18.333 11.0416 18.8261 11.243 19.2288 11.6458C19.6316 12.0486 19.833 12.5416 19.833 13.125C19.833 13.7083 19.6316 14.2014 19.2288 14.6041C18.8261 15.0069 18.333 15.2083 17.7497 15.2083Z" fill="#111631"/>
</g>
</svg>
