<svg width="40" height="40" viewBox="0 0 40 40" fill="none" xmlns="http://www.w3.org/2000/svg">
<mask id="mask0_890_602" style="mask-type:alpha" maskUnits="userSpaceOnUse" x="0" y="0" width="40" height="40">
<rect width="40" height="40" fill="#D9D9D9"/>
</mask>
<g mask="url(#mask0_890_602)">
<path d="M10.875 18.0833L20.0417 3.33331L29.2083 18.0833H10.875ZM29.4167 36.6666C27.3889 36.6666 25.6736 35.9653 24.2708 34.5625C22.8681 33.1597 22.1667 31.4444 22.1667 29.4166C22.1667 27.4166 22.8681 25.7083 24.2708 24.2916C25.6736 22.875 27.3889 22.1666 29.4167 22.1666C31.4167 22.1666 33.125 22.875 34.5417 24.2916C35.9583 25.7083 36.6667 27.4166 36.6667 29.4166C36.6667 31.4444 35.9583 33.1597 34.5417 34.5625C33.125 35.9653 31.4167 36.6666 29.4167 36.6666ZM5 35.625V22.9583H17.6667V35.625H5Z" fill="#111631"/>
</g>
</svg>
