<svg width="40" height="40" viewBox="0 0 40 40" fill="none" xmlns="http://www.w3.org/2000/svg">
<mask id="mask0_890_616" style="mask-type:alpha" maskUnits="userSpaceOnUse" x="0" y="0" width="40" height="40">
<rect width="40" height="40" fill="#D9D9D9"/>
</mask>
<g mask="url(#mask0_890_616)">
<path d="M9.75 38.3333C8.41667 38.3333 7.29167 37.875 6.375 36.9583C5.45833 36.0417 5 34.9167 5 33.5833C5 32.25 5.45833 31.125 6.375 30.2083C7.29167 29.2917 8.41667 28.8333 9.75 28.8333C10.1389 28.8333 10.4792 28.8681 10.7708 28.9375C11.0625 29.0069 11.3611 29.1111 11.6667 29.25L15.2083 24.8333C14.6806 24.1944 14.2778 23.4653 14 22.6458C13.7222 21.8264 13.6528 20.9722 13.7917 20.0833L8.75 18.375C8.33333 19.0694 7.78472 19.6111 7.10417 20C6.42361 20.3889 5.63889 20.5833 4.75 20.5833C3.41667 20.5833 2.29167 20.125 1.375 19.2083C0.458333 18.2917 0 17.1667 0 15.8333C0 14.5 0.458333 13.375 1.375 12.4583C2.29167 11.5417 3.41667 11.0833 4.75 11.0833C6.08333 11.0833 7.20833 11.5417 8.125 12.4583C9.04167 13.375 9.5 14.5 9.5 15.8333V16L14.5833 17.75C15.0833 16.8611 15.6875 16.1806 16.3958 15.7083C17.1042 15.2361 17.8889 14.9028 18.75 14.7083V9.33333C17.6667 9.02778 16.8125 8.43056 16.1875 7.54167C15.5625 6.65278 15.25 5.72222 15.25 4.75C15.25 3.41667 15.7083 2.29167 16.625 1.375C17.5417 0.458333 18.6667 0 20 0C21.3333 0 22.4583 0.458333 23.375 1.375C24.2917 2.29167 24.75 3.41667 24.75 4.75C24.75 5.72222 24.4306 6.65278 23.7917 7.54167C23.1528 8.43056 22.3056 9.02778 21.25 9.33333V14.7083C22.1111 14.9028 22.9028 15.2361 23.625 15.7083C24.3472 16.1806 24.9583 16.8611 25.4583 17.75L30.5 16V15.8333C30.5 14.5 30.9583 13.375 31.875 12.4583C32.7917 11.5417 33.9167 11.0833 35.25 11.0833C36.5833 11.0833 37.7083 11.5417 38.625 12.4583C39.5417 13.375 40 14.5 40 15.8333C40 17.1667 39.5417 18.2917 38.625 19.2083C37.7083 20.125 36.5833 20.5833 35.25 20.5833C34.3611 20.5833 33.5694 20.3889 32.875 20C32.1806 19.6111 31.6389 19.0694 31.25 18.375L26.2083 20.0833C26.3472 20.9722 26.2847 21.8264 26.0208 22.6458C25.7569 23.4653 25.3472 24.1944 24.7917 24.8333L28.3333 29.25C28.6389 29.1111 28.9375 29.0069 29.2292 28.9375C29.5208 28.8681 29.8611 28.8333 30.25 28.8333C31.5833 28.8333 32.7083 29.2917 33.625 30.2083C34.5417 31.125 35 32.25 35 33.5833C35 34.9167 34.5417 36.0417 33.625 36.9583C32.7083 37.875 31.5833 38.3333 30.25 38.3333C28.9167 38.3333 27.7917 37.875 26.875 36.9583C25.9583 36.0417 25.5 34.9167 25.5 33.5833C25.5 33.0278 25.5764 32.5278 25.7292 32.0833C25.8819 31.6389 26.0972 31.2083 26.375 30.7917L22.8333 26.375C21.9444 26.8472 20.9931 27.0833 19.9792 27.0833C18.9653 27.0833 18.0139 26.8472 17.125 26.375L13.625 30.8333C13.9028 31.25 14.1181 31.6736 14.2708 32.1042C14.4236 32.5347 14.5 33.0278 14.5 33.5833C14.5 34.9167 14.0417 36.0417 13.125 36.9583C12.2083 37.875 11.0833 38.3333 9.75 38.3333Z" fill="#111631"/>
</g>
</svg>
