<svg width="40" height="40" viewBox="0 0 40 40" fill="none" xmlns="http://www.w3.org/2000/svg">
<mask id="mask0_890_623" style="mask-type:alpha" maskUnits="userSpaceOnUse" x="0" y="0" width="40" height="40">
<rect width="40" height="40" fill="#D9D9D9"/>
</mask>
<g mask="url(#mask0_890_623)">
<path d="M4.08333 17.625L10.9583 20.5833C11.7639 18.5278 12.6389 16.7292 13.5833 15.1875C14.5278 13.6458 15.7639 12.0139 17.2917 10.2917L14.0833 9.70832C13.5278 9.59721 12.9861 9.62499 12.4583 9.79166C11.9306 9.95832 11.4722 10.2361 11.0833 10.625L4.08333 17.625ZM12.5 21.3333L19.2083 28.0417C21.2361 27.2917 23.1528 26.3472 24.9583 25.2083C26.7639 24.0694 28.3889 22.7778 29.8333 21.3333C32.2778 18.8889 34.0972 16.0972 35.2917 12.9583C36.4861 9.81944 36.8472 6.88888 36.375 4.16666C33.6528 3.69443 30.7222 4.06249 27.5833 5.27082C24.4444 6.47916 21.6528 8.30555 19.2083 10.75C17.7639 12.1944 16.4722 13.8125 15.3333 15.6042C14.1944 17.3958 13.25 19.3055 12.5 21.3333ZM24.4167 16.125C23.8611 15.5694 23.5833 14.8819 23.5833 14.0625C23.5833 13.243 23.8611 12.5555 24.4167 12C24.9722 11.4444 25.6597 11.1667 26.4792 11.1667C27.2986 11.1667 27.9861 11.4444 28.5417 12C29.0972 12.5555 29.375 13.243 29.375 14.0625C29.375 14.8819 29.0972 15.5694 28.5417 16.125C27.9861 16.6805 27.2986 16.9583 26.4792 16.9583C25.6597 16.9583 24.9722 16.6805 24.4167 16.125ZM22.9583 36.4583L29.9167 29.5C30.3056 29.1111 30.5833 28.6458 30.75 28.1042C30.9167 27.5625 30.9444 27.0139 30.8333 26.4583L30.25 23.25C28.5278 24.7778 26.8958 26.0139 25.3542 26.9583C23.8125 27.9028 22.0139 28.7778 19.9583 29.5833L22.9583 36.4583ZM6.75 26.75C7.72222 25.7778 8.90278 25.2847 10.2917 25.2708C11.6806 25.2569 12.8611 25.7361 13.8333 26.7083C14.8056 27.6805 15.2917 28.8611 15.2917 30.25C15.2917 31.6389 14.8056 32.8194 13.8333 33.7917C13.1111 34.5139 11.9861 35.1111 10.4583 35.5833C8.93056 36.0555 6.65278 36.5 3.625 36.9167C4.04167 33.8889 4.48611 31.618 4.95833 30.1042C5.43056 28.5903 6.02778 27.4722 6.75 26.75Z" fill="#111631"/>
</g>
</svg>
