<svg width="40" height="40" viewBox="0 0 40 40" fill="none" xmlns="http://www.w3.org/2000/svg">
<mask id="mask0_890_637" style="mask-type:alpha" maskUnits="userSpaceOnUse" x="0" y="0" width="40" height="40">
<rect width="40" height="40" fill="#D9D9D9"/>
</mask>
<g mask="url(#mask0_890_637)">
<path d="M6.3336 33.9583L5.37527 33.6667C4.48638 33.2778 3.88221 32.6111 3.56277 31.6667C3.24333 30.7222 3.3336 29.7917 3.8336 28.875L6.3336 23.2083V33.9583ZM14.0836 37.2083C13.1392 37.2083 12.3336 36.875 11.6669 36.2083C11.0003 35.5417 10.6669 34.7361 10.6669 33.7917V25.1667L14.5003 36.0833C14.5558 36.3055 14.6392 36.5 14.7503 36.6667C14.8614 36.8333 15.0003 37.0139 15.1669 37.2083H14.0836ZM21.9169 36.2083C21.3336 36.4583 20.7225 36.4028 20.0836 36.0417C19.4447 35.6805 18.9864 35.1805 18.7086 34.5417L10.7503 12.9167C10.4725 12.2778 10.5003 11.6528 10.8336 11.0417C11.1669 10.4305 11.6808 9.9861 12.3753 9.70832L25.6253 4.91666C26.2642 4.69444 26.8892 4.74999 27.5003 5.08333C28.1114 5.41666 28.5558 5.91666 28.8336 6.58333L36.7919 27.9583C36.9864 28.6528 36.9447 29.3333 36.6669 30C36.3892 30.6667 35.903 31.125 35.2086 31.375L21.9169 36.2083ZM18.5003 15.5833C18.8336 15.5833 19.1253 15.4583 19.3753 15.2083C19.6253 14.9583 19.7503 14.6667 19.7503 14.3333C19.7503 14 19.6253 13.7083 19.3753 13.4583C19.1253 13.2083 18.8336 13.0833 18.5003 13.0833C18.1669 13.0833 17.8753 13.2083 17.6253 13.4583C17.3753 13.7083 17.2503 14 17.2503 14.3333C17.2503 14.6667 17.3753 14.9583 17.6253 15.2083C17.8753 15.4583 18.1669 15.5833 18.5003 15.5833Z" fill="#111631"/>
</g>
</svg>
