<svg width="150" height="25" viewBox="0 0 150 25" fill="none" xmlns="http://www.w3.org/2000/svg">
<path d="M0 24.6197H4.39638V10.3629L10.3001 24.6197H13.6288L19.5011 10.3629V24.6197H23.8975V2.70063H18.9358L11.9644 18.9986L4.99303 2.70063H0V24.6197Z" fill="black"/>
<path d="M35.0898 10.5513C37.3508 10.5513 39.1722 11.9958 39.235 14.2882H30.9761C31.3215 11.9016 32.9859 10.5513 35.0898 10.5513ZM43.3488 19.1557H38.6069C38.0417 20.3176 37.0054 21.2596 35.1212 21.2596C32.9231 21.2596 31.1645 19.8151 30.9447 17.2401H43.6628C43.757 16.6748 43.7884 16.1096 43.7884 15.5443C43.7884 10.3629 40.2399 6.94 35.2155 6.94C30.0654 6.94 26.4855 10.4257 26.4855 15.9212C26.4855 21.3853 30.1596 24.9024 35.2155 24.9024C39.5176 24.9024 42.4067 22.3587 43.3488 19.1557Z" fill="black"/>
<path d="M47.0602 19.2185C47.0602 23.2066 49.2898 24.6197 52.6185 24.6197H55.3819V20.9142H53.3407C51.959 20.9142 51.488 20.4118 51.488 19.2499V10.8339H55.3819V7.22263H51.488V2.92045H47.0602V7.22263H44.9876V10.8339H47.0602V19.2185Z" fill="black"/>
<path d="M56.7854 15.8584C56.7854 21.291 60.3025 24.9024 64.6989 24.9024C67.4624 24.9024 69.4407 23.5834 70.477 22.0761V24.6197H74.9048V7.22263H70.477V9.70344C69.4407 8.25891 67.5252 6.94 64.7303 6.94C60.3026 6.94 56.7854 10.4257 56.7854 15.8584ZM70.477 15.9212C70.477 19.2185 68.2788 21.0398 65.8608 21.0398C63.5056 21.0398 61.276 19.1557 61.276 15.8584C61.276 12.5611 63.5056 10.8025 65.8608 10.8025C68.2788 10.8025 70.477 12.6239 70.477 15.9212Z" fill="black"/>
<path d="M92.3564 24.6197H96.7528V2.70063H92.3564V11.7132H82.967V2.70063H78.5706V24.6197H82.967V15.2931H92.3564V24.6197Z" fill="black"/>
<path d="M107.926 10.5513C110.187 10.5513 112.008 11.9958 112.071 14.2882H103.812C104.157 11.9016 105.822 10.5513 107.926 10.5513ZM116.185 19.1557H111.443C110.878 20.3176 109.841 21.2596 107.957 21.2596C105.759 21.2596 104 19.8151 103.781 17.2401H116.499C116.593 16.6748 116.624 16.1096 116.624 15.5443C116.624 10.3629 113.076 6.94 108.051 6.94C102.901 6.94 99.3214 10.4257 99.3214 15.9212C99.3214 21.3853 102.996 24.9024 108.051 24.9024C112.354 24.9024 115.243 22.3587 116.185 19.1557Z" fill="black"/>
<path d="M119.205 24.6197H123.602V1.38172H119.205V24.6197Z" fill="black"/>
<path d="M127.317 24.6197H131.714V7.22263H127.317V24.6197ZM129.547 5.15005C131.086 5.15005 132.247 4.01955 132.247 2.57502C132.247 1.1305 131.086 0 129.547 0C127.977 0 126.846 1.1305 126.846 2.57502C126.846 4.01955 127.977 5.15005 129.547 5.15005Z" fill="black"/>
<path d="M145.038 24.6197H150L144.222 15.8898L149.937 7.22263H145.227L142.024 12.5925L138.475 7.22263H133.514L139.26 15.8898L133.576 24.6197H138.287L141.458 19.2185L145.038 24.6197Z" fill="black"/>
</svg>
