<svg width="350" height="350" viewBox="0 0 350 350" fill="none" xmlns="http://www.w3.org/2000/svg">
<g style="mix-blend-mode:multiply">
<path d="M58.7747 276.033C80.3568 300.861 109.322 318.124 141.427 325.296L175 175L58.7747 276.033Z" fill="url(#paint0_linear_1278_19)"/>
</g>
<g style="mix-blend-mode:multiply">
<path d="M132.703 344.812C173.263 354.914 216.1 350.166 253.463 331.424C290.826 312.683 320.247 281.187 336.402 242.635C352.557 204.083 354.379 161.022 341.539 121.243C328.699 81.4645 302.044 47.5954 266.399 25.7643C230.753 3.9332 188.47 -4.4179 147.201 2.22206C105.932 8.86202 68.4026 30.0544 41.4035 61.9648C14.4043 93.8751 -0.281201 134.396 0.00407564 176.194C0.289352 217.993 15.5266 258.309 42.9588 289.848L175 175L132.703 344.812Z" fill="url(#paint1_linear_1278_19)"/>
</g>
<g filter="url(#filter0_d_1278_19)">
<circle cx="174.667" cy="174.667" r="95.6667" fill="white"/>
</g>
<path d="M132.76 189.48C130.707 189.48 128.933 189.12 127.44 188.4C125.973 187.68 124.813 186.693 123.96 185.44C123.133 184.16 122.653 182.72 122.52 181.12H127.52C127.76 182.267 128.347 183.227 129.28 184C130.213 184.747 131.373 185.12 132.76 185.12C134.253 185.12 135.467 184.573 136.4 183.48C137.36 182.387 137.84 181.027 137.84 179.4C137.84 177.72 137.36 176.387 136.4 175.4C135.467 174.413 134.28 173.92 132.84 173.92C131.64 173.92 130.6 174.213 129.72 174.8C128.84 175.387 128.213 176.12 127.84 177H122.92L125.32 161H140.84V165.48H129.16L127.88 171.96C128.467 171.32 129.267 170.8 130.28 170.4C131.293 169.973 132.427 169.76 133.68 169.76C135.68 169.76 137.347 170.213 138.68 171.12C140.013 172 141.027 173.173 141.72 174.64C142.413 176.08 142.76 177.653 142.76 179.36C142.76 181.307 142.333 183.04 141.48 184.56C140.653 186.08 139.48 187.28 137.96 188.16C136.467 189.04 134.733 189.48 132.76 189.48ZM159.005 189.48C156.418 189.48 154.205 188.88 152.365 187.68C150.525 186.453 149.098 184.76 148.085 182.6C147.098 180.413 146.605 177.88 146.605 175C146.605 172.147 147.098 169.627 148.085 167.44C149.098 165.253 150.525 163.56 152.365 162.36C154.205 161.133 156.418 160.52 159.005 160.52C161.591 160.52 163.805 161.133 165.645 162.36C167.485 163.56 168.898 165.253 169.885 167.44C170.898 169.627 171.405 172.147 171.405 175C171.405 177.88 170.898 180.413 169.885 182.6C168.898 184.76 167.485 186.453 165.645 187.68C163.805 188.88 161.591 189.48 159.005 189.48ZM159.005 184.88C161.111 184.88 162.831 184 164.165 182.24C165.498 180.48 166.165 178.067 166.165 175C166.165 171.933 165.498 169.52 164.165 167.76C162.831 166 161.111 165.12 159.005 165.12C156.871 165.12 155.138 166 153.805 167.76C152.498 169.52 151.845 171.933 151.845 175C151.845 178.067 152.498 180.48 153.805 182.24C155.138 184 156.871 184.88 159.005 184.88ZM187.403 189.48C184.816 189.48 182.603 188.88 180.763 187.68C178.923 186.453 177.496 184.76 176.483 182.6C175.496 180.413 175.003 177.88 175.003 175C175.003 172.147 175.496 169.627 176.483 167.44C177.496 165.253 178.923 163.56 180.763 162.36C182.603 161.133 184.816 160.52 187.403 160.52C189.99 160.52 192.203 161.133 194.043 162.36C195.883 163.56 197.296 165.253 198.283 167.44C199.296 169.627 199.803 172.147 199.803 175C199.803 177.88 199.296 180.413 198.283 182.6C197.296 184.76 195.883 186.453 194.043 187.68C192.203 188.88 189.99 189.48 187.403 189.48ZM187.403 184.88C189.51 184.88 191.23 184 192.563 182.24C193.896 180.48 194.563 178.067 194.563 175C194.563 171.933 193.896 169.52 192.563 167.76C191.23 166 189.51 165.12 187.403 165.12C185.27 165.12 183.536 166 182.203 167.76C180.896 169.52 180.243 171.933 180.243 175C180.243 178.067 180.896 180.48 182.203 182.24C183.536 184 185.27 184.88 187.403 184.88ZM215.802 189.48C213.215 189.48 211.002 188.88 209.162 187.68C207.322 186.453 205.895 184.76 204.882 182.6C203.895 180.413 203.402 177.88 203.402 175C203.402 172.147 203.895 169.627 204.882 167.44C205.895 165.253 207.322 163.56 209.162 162.36C211.002 161.133 213.215 160.52 215.802 160.52C218.388 160.52 220.602 161.133 222.442 162.36C224.282 163.56 225.695 165.253 226.682 167.44C227.695 169.627 228.202 172.147 228.202 175C228.202 177.88 227.695 180.413 226.682 182.6C225.695 184.76 224.282 186.453 222.442 187.68C220.602 188.88 218.388 189.48 215.802 189.48ZM215.802 184.88C217.908 184.88 219.628 184 220.962 182.24C222.295 180.48 222.962 178.067 222.962 175C222.962 171.933 222.295 169.52 220.962 167.76C219.628 166 217.908 165.12 215.802 165.12C213.668 165.12 211.935 166 210.602 167.76C209.295 169.52 208.642 171.933 208.642 175C208.642 178.067 209.295 180.48 210.602 182.24C211.935 184 213.668 184.88 215.802 184.88Z" fill="#454459"/>
<defs>
<filter id="filter0_d_1278_19" x="54" y="59.0001" width="241.333" height="241.333" filterUnits="userSpaceOnUse" color-interpolation-filters="sRGB">
<feFlood flood-opacity="0" result="BackgroundImageFix"/>
<feColorMatrix in="SourceAlpha" type="matrix" values="0 0 0 0 0 0 0 0 0 0 0 0 0 0 0 0 0 0 127 0" result="hardAlpha"/>
<feOffset dy="5"/>
<feGaussianBlur stdDeviation="12.5"/>
<feColorMatrix type="matrix" values="0 0 0 0 0 0 0 0 0 0 0 0 0 0 0 0 0 0 0.1 0"/>
<feBlend mode="normal" in2="BackgroundImageFix" result="effect1_dropShadow_1278_19"/>
<feBlend mode="normal" in="SourceGraphic" in2="effect1_dropShadow_1278_19" result="shape"/>
</filter>
<linearGradient id="paint0_linear_1278_19" x1="175" y1="269.111" x2="133" y2="309.556" gradientUnits="userSpaceOnUse">
<stop stop-color="#399CDC"/>
<stop offset="1" stop-color="#5CA6D6"/>
</linearGradient>
<linearGradient id="paint1_linear_1278_19" x1="329" y1="23.3333" x2="3.3462e-05" y2="443.333" gradientUnits="userSpaceOnUse">
<stop stop-color="#399CDC"/>
<stop offset="1" stop-color="#031F31"/>
</linearGradient>
</defs>
</svg>
