<svg width="350" height="350" viewBox="0 0 350 350" fill="none" xmlns="http://www.w3.org/2000/svg">
<g style="mix-blend-mode:multiply">
<circle cx="175" cy="175" r="154" fill="url(#paint0_linear_446_488)"/>
</g>
<g style="mix-blend-mode:multiply">
<path d="M138.634 346.18C101.231 338.234 67.4601 318.256 42.4851 289.301L175 175L138.634 346.18Z" fill="url(#paint1_linear_446_488)"/>
</g>
<g filter="url(#filter0_d_446_488)">
<circle cx="174.667" cy="174.667" r="95.6667" fill="white"/>
</g>
<path d="M150.053 189.48C148 189.48 146.226 189.12 144.733 188.4C143.266 187.68 142.106 186.693 141.253 185.44C140.426 184.16 139.946 182.72 139.813 181.12H144.813C145.053 182.267 145.64 183.227 146.573 184C147.506 184.747 148.666 185.12 150.053 185.12C151.546 185.12 152.76 184.573 153.693 183.48C154.653 182.387 155.133 181.027 155.133 179.4C155.133 177.72 154.653 176.387 153.693 175.4C152.76 174.413 151.573 173.92 150.133 173.92C148.933 173.92 147.893 174.213 147.013 174.8C146.133 175.387 145.506 176.12 145.133 177H140.213L142.613 161H158.133V165.48H146.453L145.173 171.96C145.76 171.32 146.56 170.8 147.573 170.4C148.586 169.973 149.72 169.76 150.973 169.76C152.973 169.76 154.64 170.213 155.973 171.12C157.306 172 158.32 173.173 159.013 174.64C159.706 176.08 160.053 177.653 160.053 179.36C160.053 181.307 159.626 183.04 158.773 184.56C157.946 186.08 156.773 187.28 155.253 188.16C153.76 189.04 152.026 189.48 150.053 189.48ZM174.858 189.48C172.804 189.48 171.031 189.12 169.538 188.4C168.071 187.68 166.911 186.693 166.058 185.44C165.231 184.16 164.751 182.72 164.618 181.12H169.618C169.858 182.267 170.444 183.227 171.378 184C172.311 184.747 173.471 185.12 174.858 185.12C176.351 185.12 177.564 184.573 178.498 183.48C179.458 182.387 179.938 181.027 179.938 179.4C179.938 177.72 179.458 176.387 178.498 175.4C177.564 174.413 176.378 173.92 174.938 173.92C173.738 173.92 172.698 174.213 171.818 174.8C170.938 175.387 170.311 176.12 169.938 177H165.018L167.418 161H182.938V165.48H171.258L169.978 171.96C170.564 171.32 171.364 170.8 172.378 170.4C173.391 169.973 174.524 169.76 175.778 169.76C177.778 169.76 179.444 170.213 180.778 171.12C182.111 172 183.124 173.173 183.818 174.64C184.511 176.08 184.858 177.653 184.858 179.36C184.858 181.307 184.431 183.04 183.578 184.56C182.751 186.08 181.578 187.28 180.058 188.16C178.564 189.04 176.831 189.48 174.858 189.48ZM199.662 189.48C197.609 189.48 195.836 189.12 194.342 188.4C192.876 187.68 191.716 186.693 190.862 185.44C190.036 184.16 189.556 182.72 189.422 181.12H194.422C194.662 182.267 195.249 183.227 196.182 184C197.116 184.747 198.276 185.12 199.662 185.12C201.156 185.12 202.369 184.573 203.302 183.48C204.262 182.387 204.742 181.027 204.742 179.4C204.742 177.72 204.262 176.387 203.302 175.4C202.369 174.413 201.182 173.92 199.742 173.92C198.542 173.92 197.502 174.213 196.622 174.8C195.742 175.387 195.116 176.12 194.742 177H189.822L192.222 161H207.742V165.48H196.062L194.782 171.96C195.369 171.32 196.169 170.8 197.182 170.4C198.196 169.973 199.329 169.76 200.582 169.76C202.582 169.76 204.249 170.213 205.582 171.12C206.916 172 207.929 173.173 208.622 174.64C209.316 176.08 209.662 177.653 209.662 179.36C209.662 181.307 209.236 183.04 208.382 184.56C207.556 186.08 206.382 187.28 204.862 188.16C203.369 189.04 201.636 189.48 199.662 189.48Z" fill="#454459"/>
<defs>
<filter id="filter0_d_446_488" x="54" y="59" width="241.333" height="241.333" filterUnits="userSpaceOnUse" color-interpolation-filters="sRGB">
<feFlood flood-opacity="0" result="BackgroundImageFix"/>
<feColorMatrix in="SourceAlpha" type="matrix" values="0 0 0 0 0 0 0 0 0 0 0 0 0 0 0 0 0 0 127 0" result="hardAlpha"/>
<feOffset dy="5"/>
<feGaussianBlur stdDeviation="12.5"/>
<feColorMatrix type="matrix" values="0 0 0 0 0 0 0 0 0 0 0 0 0 0 0 0 0 0 0.1 0"/>
<feBlend mode="normal" in2="BackgroundImageFix" result="effect1_dropShadow_446_488"/>
<feBlend mode="normal" in="SourceGraphic" in2="effect1_dropShadow_446_488" result="shape"/>
</filter>
<linearGradient id="paint0_linear_446_488" x1="175" y1="269.111" x2="133" y2="309.556" gradientUnits="userSpaceOnUse">
<stop stop-color="#399CDC"/>
<stop offset="1" stop-color="#5CA6D6"/>
</linearGradient>
<linearGradient id="paint1_linear_446_488" x1="329" y1="23.3333" x2="3.3462e-05" y2="443.333" gradientUnits="userSpaceOnUse">
<stop stop-color="#399CDC"/>
<stop offset="1" stop-color="#031F31"/>
</linearGradient>
</defs>
</svg>
