<svg width="350" height="350" viewBox="0 0 350 350" fill="none" xmlns="http://www.w3.org/2000/svg">
<g style="mix-blend-mode:multiply">
<path d="M132.703 344.812C173.263 354.914 216.1 350.166 253.463 331.424C290.826 312.683 320.247 281.187 336.402 242.635C352.557 204.083 354.379 161.022 341.539 121.243C328.699 81.4645 302.044 47.5954 266.399 25.7643C230.753 3.9332 188.47 -4.4179 147.201 2.22206C105.932 8.86202 68.4026 30.0544 41.4035 61.9648C14.4043 93.8751 -0.281201 134.396 0.00407564 176.194C0.289352 217.993 15.5266 258.309 42.9588 289.848L175 175L132.703 344.812Z" fill="url(#paint0_linear_446_453)"/>
</g>
<defs>
<linearGradient id="paint0_linear_446_453" x1="329" y1="23.3333" x2="3.3462e-05" y2="443.333" gradientUnits="userSpaceOnUse">
<stop stop-color="#399CDC"/>
<stop offset="1" stop-color="#031F31"/>
</linearGradient>
</defs>
</svg>
